<svg xmlns="http://www.w3.org/2000/svg" xmlns:svg="http://www.w3.org/2000/svg" xmlns:se="http://svg-edit.googlecode.com" viewBox="0 0 51.3 51.3">
 <defs>
  <style>.cls-1{fill:#f1592a;}</style>
 </defs>
 <g class="layer">
  <g data-name="Layer 2" transform="matrix(0.65762897,0,0,0.65762897,34.875476,4.8752901) " id="Layer_2">
   <g data-name="Layer 1" id="Layer_1-2">
    <path fill="#f1592a" id="path8" d="m-14.26819,70.01621c-20.53,0 -37.94,-17.34 -38.1,-38a37.66,37.66 0 0 1 11,-26.87a38.29,38.29 0 0 1 27.2,-11.54l0,0a37.75,37.75 0 0 1 26.8,11.13a37.79,37.79 0 0 1 11.41,26.72a38.39,38.39 0 0 1 -38,38.56l-0.31,0zm0.12,-74.41a36.3,36.3 0 0 0 -25.77,10.95a35.67,35.67 0 0 0 -10.45,25.44c0.15,19.58 16.65,36 36.09,36l0.26,0a36.39,36.39 0 0 0 36.06,-36.53a35.81,35.81 0 0 0 -10.82,-25.31a35.64,35.64 0 0 0 -25.37,-10.55z" class="cls-1"/>
    <path fill="#f1592a" id="path10" d="m-43.79819,42.98621l0,-22.32l5.43,0l0,2l-2.88,0l0,18.36l2.88,0l0,2l-5.43,-0.04z" class="cls-1"/>
    <path fill="#f1592a" id="path12" d="m-25.36819,31.60621c0,4.07 -2.47,6.39 -5.82,6.39c-3.35,0 -5.58,-2.61 -5.58,-6.18c0,-3.73 2.34,-6.36 5.76,-6.36c3.42,0 5.64,2.74 5.64,6.15zm-9.06,0.18c0,2.47 1.24,4.43 3.37,4.43c2.13,0 3.35,-2 3.35,-4.52c0,-2.29 -1.13,-4.45 -3.35,-4.45c-2.22,0 -3.39,2.09 -3.39,4.59l0.02,-0.05z" class="cls-1"/>
    <path fill="#f1592a" id="path14" d="m-23.48819,25.87621a18.52,18.52 0 0 1 3.22,-0.27a5.75,5.75 0 0 1 3.48,0.77a2.56,2.56 0 0 1 1.26,2.27a2.82,2.82 0 0 1 -2,2.63l0,0a3.06,3.06 0 0 1 2.45,3a3.15,3.15 0 0 1 -1.17,2.5c-0.86,0.76 -2.29,1.13 -4.5,1.13a21.41,21.41 0 0 1 -2.72,-0.16l-0.02,-11.87zm2.2,4.79l1.13,0c1.53,0 2.39,-0.72 2.39,-1.75c0,-1.03 -0.86,-1.66 -2.27,-1.66a6,6 0 0 0 -1.26,0.09l0.01,3.32zm0,5.58a9.75,9.75 0 0 0 1.17,0.05c1.42,0 2.68,-0.54 2.68,-2c0,-1.46 -1.22,-2 -2.75,-2l-1.1,0l0,3.95z" class="cls-1"/>
    <path fill="#f1592a" id="path16" d="m-10.70819,25.71621l2.21,0l0,7.89c0,3.35 -1.62,4.47 -4,4.47a5.91,5.91 0 0 1 -1.87,-0.32l0.27,-1.78a4.85,4.85 0 0 0 1.37,0.22c1.26,0 2,-0.58 2,-2.68l0.02,-7.8z" class="cls-1"/>
    <path fill="#f1592a" id="path18" d="m-2.20819,32.28621l0,1.53l-4.6,0l0,-1.53l4.6,0z" class="cls-1"/>
    <path fill="#f1592a" id="path20" d="m8.53181,37.48621a7.67,7.67 0 0 1 -3.13,0.54c-3.85,0 -6.19,-2.41 -6.19,-6.1a6.1,6.1 0 0 1 6.48,-6.41a7,7 0 0 1 3,0.54l-0.49,1.76a5.89,5.89 0 0 0 -2.38,-0.47c-2.47,0 -4.25,1.55 -4.25,4.47c0,2.66 1.57,4.38 4.23,4.38a6.2,6.2 0 0 0 2.41,-0.45l0.32,1.74z" class="cls-1"/>
    <path fill="#f1592a" id="path22" d="m15.47181,20.60621l0,22.38l-5.43,0l0,-2l2.88,0l0,-18.38l-2.88,0l0,-2l5.43,0z" class="cls-1"/>
   </g>
  </g>
 </g>
</svg>